<mxfile host="app.diagrams.net" agent="Mozilla/5.0 (Windows NT 10.0; Win64; x64) AppleWebKit/537.36 (KHTML, like Gecko) Chrome/131.0.0.0 Safari/537.36" version="26.0.1">
  <diagram name="Page-1" id="OFMgRw4YCLmJ8GE-oLRB">
    <mxGraphModel dx="1900" dy="522" grid="1" gridSize="10" guides="1" tooltips="1" connect="1" arrows="1" fold="1" page="1" pageScale="1" pageWidth="850" pageHeight="1100" math="0" shadow="0">
      <root>
        <mxCell id="0" />
        <mxCell id="1" parent="0" />
        <mxCell id="sSqFom3tWy9NeXFKlYA6-1" value="&lt;font&gt;Window 10 Client&lt;/font&gt;&lt;div&gt;&lt;font&gt;Wazuh Agent&lt;/font&gt;&lt;/div&gt;" style="sketch=1;aspect=fixed;pointerEvents=1;shadow=1;dashed=0;html=1;strokeColor=#B20000;labelPosition=center;verticalLabelPosition=bottom;verticalAlign=top;align=center;fillColor=#e51400;shape=mxgraph.azure.computer;fontColor=#33001A;curveFitting=1;jiggle=2;gradientColor=default;" parent="1" vertex="1">
          <mxGeometry x="400" y="650" width="50" height="45" as="geometry" />
        </mxCell>
        <mxCell id="sSqFom3tWy9NeXFKlYA6-9" style="edgeStyle=orthogonalEdgeStyle;rounded=0;orthogonalLoop=1;jettySize=auto;html=1;entryX=1;entryY=0.5;entryDx=0;entryDy=0;shape=link;" parent="1" source="sSqFom3tWy9NeXFKlYA6-2" target="sSqFom3tWy9NeXFKlYA6-4" edge="1">
          <mxGeometry relative="1" as="geometry" />
        </mxCell>
        <mxCell id="sSqFom3tWy9NeXFKlYA6-10" value="&amp;nbsp;2. Receive Events&amp;nbsp;" style="edgeLabel;html=1;align=center;verticalAlign=middle;resizable=0;points=[];" parent="sSqFom3tWy9NeXFKlYA6-9" vertex="1" connectable="0">
          <mxGeometry x="0.0653" y="2" relative="1" as="geometry">
            <mxPoint as="offset" />
          </mxGeometry>
        </mxCell>
        <mxCell id="sSqFom3tWy9NeXFKlYA6-25" style="rounded=0;orthogonalLoop=1;jettySize=auto;html=1;shape=link;fillColor=#a20025;strokeColor=#6F0000;" parent="1" source="sSqFom3tWy9NeXFKlYA6-2" target="sSqFom3tWy9NeXFKlYA6-22" edge="1">
          <mxGeometry relative="1" as="geometry" />
        </mxCell>
        <mxCell id="sSqFom3tWy9NeXFKlYA6-26" value="7. Send and Receive Emails&amp;nbsp;" style="edgeLabel;html=1;align=center;verticalAlign=middle;resizable=0;points=[];" parent="sSqFom3tWy9NeXFKlYA6-25" vertex="1" connectable="0">
          <mxGeometry x="-0.1033" relative="1" as="geometry">
            <mxPoint as="offset" />
          </mxGeometry>
        </mxCell>
        <mxCell id="sSqFom3tWy9NeXFKlYA6-37" style="rounded=0;orthogonalLoop=1;jettySize=auto;html=1;shape=link;fillColor=#008a00;strokeColor=#005700;" parent="1" source="sSqFom3tWy9NeXFKlYA6-2" target="sSqFom3tWy9NeXFKlYA6-5" edge="1">
          <mxGeometry relative="1" as="geometry">
            <Array as="points">
              <mxPoint x="280" y="230" />
            </Array>
          </mxGeometry>
        </mxCell>
        <mxCell id="sSqFom3tWy9NeXFKlYA6-2" value="&lt;span style=&quot;background-color: rgb(255, 255, 255);&quot;&gt;Internet&lt;/span&gt;" style="image;aspect=fixed;perimeter=ellipsePerimeter;html=1;align=center;shadow=1;dashed=0;spacingTop=3;image=img/lib/active_directory/internet_cloud.svg;sketch=1;curveFitting=1;jiggle=2;imageBackground=none;" parent="1" vertex="1">
          <mxGeometry x="400" y="280" width="50" height="31.5" as="geometry" />
        </mxCell>
        <mxCell id="sSqFom3tWy9NeXFKlYA6-3" value="TheHive&amp;nbsp;" style="image;aspect=fixed;perimeter=ellipsePerimeter;html=1;align=center;shadow=1;dashed=0;spacingTop=3;image=img/lib/active_directory/internet_cloud.svg;" parent="1" vertex="1">
          <mxGeometry x="770" y="280" width="50" height="31.5" as="geometry" />
        </mxCell>
        <mxCell id="sSqFom3tWy9NeXFKlYA6-13" style="rounded=0;orthogonalLoop=1;jettySize=auto;html=1;shape=link;" parent="1" source="sSqFom3tWy9NeXFKlYA6-4" target="sSqFom3tWy9NeXFKlYA6-5" edge="1">
          <mxGeometry relative="1" as="geometry" />
        </mxCell>
        <mxCell id="sSqFom3tWy9NeXFKlYA6-14" value="3. Send alerts&amp;nbsp;" style="edgeLabel;html=1;align=center;verticalAlign=middle;resizable=0;points=[];" parent="sSqFom3tWy9NeXFKlYA6-13" vertex="1" connectable="0">
          <mxGeometry x="-0.0958" y="3" relative="1" as="geometry">
            <mxPoint x="-33" y="27" as="offset" />
          </mxGeometry>
        </mxCell>
        <mxCell id="sSqFom3tWy9NeXFKlYA6-4" value="Wazuh&amp;nbsp;" style="image;aspect=fixed;perimeter=ellipsePerimeter;html=1;align=center;shadow=1;dashed=0;spacingTop=3;image=img/lib/active_directory/internet_cloud.svg;" parent="1" vertex="1">
          <mxGeometry x="50" y="280" width="50" height="31.5" as="geometry" />
        </mxCell>
        <mxCell id="sSqFom3tWy9NeXFKlYA6-15" style="rounded=0;orthogonalLoop=1;jettySize=auto;html=1;shape=link;" parent="1" source="sSqFom3tWy9NeXFKlYA6-5" target="sSqFom3tWy9NeXFKlYA6-3" edge="1">
          <mxGeometry relative="1" as="geometry" />
        </mxCell>
        <mxCell id="sSqFom3tWy9NeXFKlYA6-16" value="5. Send Alerts&amp;nbsp;" style="edgeLabel;html=1;align=center;verticalAlign=middle;resizable=0;points=[];" parent="sSqFom3tWy9NeXFKlYA6-15" vertex="1" connectable="0">
          <mxGeometry x="-0.0473" y="1" relative="1" as="geometry">
            <mxPoint y="1" as="offset" />
          </mxGeometry>
        </mxCell>
        <mxCell id="sSqFom3tWy9NeXFKlYA6-23" style="rounded=0;orthogonalLoop=1;jettySize=auto;html=1;shape=link;fillColor=#a20025;strokeColor=#6F0000;elbow=vertical;" parent="1" source="sSqFom3tWy9NeXFKlYA6-5" target="sSqFom3tWy9NeXFKlYA6-2" edge="1">
          <mxGeometry relative="1" as="geometry">
            <Array as="points">
              <mxPoint x="570" y="240" />
              <mxPoint x="540" y="290" />
            </Array>
          </mxGeometry>
        </mxCell>
        <mxCell id="sSqFom3tWy9NeXFKlYA6-24" value="6. Send Emails&amp;nbsp;" style="edgeLabel;html=1;align=center;verticalAlign=middle;resizable=0;points=[];" parent="sSqFom3tWy9NeXFKlYA6-23" vertex="1" connectable="0">
          <mxGeometry x="0.1491" relative="1" as="geometry">
            <mxPoint as="offset" />
          </mxGeometry>
        </mxCell>
        <mxCell id="sSqFom3tWy9NeXFKlYA6-33" style="edgeStyle=orthogonalEdgeStyle;rounded=0;orthogonalLoop=1;jettySize=auto;html=1;shape=link;" parent="1" source="sSqFom3tWy9NeXFKlYA6-5" target="sSqFom3tWy9NeXFKlYA6-2" edge="1">
          <mxGeometry relative="1" as="geometry" />
        </mxCell>
        <mxCell id="sSqFom3tWy9NeXFKlYA6-34" value="4. Enrich IOCs" style="edgeLabel;html=1;align=center;verticalAlign=middle;resizable=0;points=[];" parent="sSqFom3tWy9NeXFKlYA6-33" vertex="1" connectable="0">
          <mxGeometry x="0.2276" y="-1" relative="1" as="geometry">
            <mxPoint as="offset" />
          </mxGeometry>
        </mxCell>
        <mxCell id="sSqFom3tWy9NeXFKlYA6-39" style="edgeStyle=orthogonalEdgeStyle;rounded=0;orthogonalLoop=1;jettySize=auto;html=1;entryX=0.5;entryY=0;entryDx=0;entryDy=0;shape=link;fillColor=#008a00;strokeColor=#005700;" parent="1" source="sSqFom3tWy9NeXFKlYA6-5" target="sSqFom3tWy9NeXFKlYA6-4" edge="1">
          <mxGeometry relative="1" as="geometry" />
        </mxCell>
        <mxCell id="sSqFom3tWy9NeXFKlYA6-40" value="9. Receive response action" style="edgeLabel;html=1;align=center;verticalAlign=middle;resizable=0;points=[];" parent="sSqFom3tWy9NeXFKlYA6-39" vertex="1" connectable="0">
          <mxGeometry x="0.4074" y="-4" relative="1" as="geometry">
            <mxPoint as="offset" />
          </mxGeometry>
        </mxCell>
        <mxCell id="sSqFom3tWy9NeXFKlYA6-5" value="Shuffle&amp;nbsp;" style="image;aspect=fixed;perimeter=ellipsePerimeter;html=1;align=center;shadow=1;dashed=0;spacingTop=3;image=img/lib/active_directory/internet_cloud.svg;" parent="1" vertex="1">
          <mxGeometry x="400" y="60" width="50" height="31.5" as="geometry" />
        </mxCell>
        <mxCell id="sSqFom3tWy9NeXFKlYA6-7" style="edgeStyle=orthogonalEdgeStyle;rounded=0;orthogonalLoop=1;jettySize=auto;html=1;entryX=0.5;entryY=0;entryDx=0;entryDy=0;entryPerimeter=0;shape=link;" parent="1" source="sSqFom3tWy9NeXFKlYA6-17" target="sSqFom3tWy9NeXFKlYA6-1" edge="1">
          <mxGeometry relative="1" as="geometry">
            <Array as="points">
              <mxPoint x="425" y="550" />
              <mxPoint x="425" y="550" />
            </Array>
          </mxGeometry>
        </mxCell>
        <mxCell id="sSqFom3tWy9NeXFKlYA6-8" value="1. Send Events&amp;nbsp;" style="edgeLabel;html=1;align=center;verticalAlign=middle;resizable=0;points=[];" parent="sSqFom3tWy9NeXFKlYA6-7" vertex="1" connectable="0">
          <mxGeometry x="0.022" relative="1" as="geometry">
            <mxPoint as="offset" />
          </mxGeometry>
        </mxCell>
        <mxCell id="sSqFom3tWy9NeXFKlYA6-18" value="" style="rounded=0;orthogonalLoop=1;jettySize=auto;html=1;shape=link;" parent="1" edge="1">
          <mxGeometry relative="1" as="geometry">
            <mxPoint x="425" y="337" as="sourcePoint" />
            <mxPoint x="425" y="420" as="targetPoint" />
          </mxGeometry>
        </mxCell>
        <mxCell id="sSqFom3tWy9NeXFKlYA6-21" style="rounded=0;orthogonalLoop=1;jettySize=auto;html=1;exitX=0.5;exitY=1;exitDx=0;exitDy=0;shape=link;" parent="1" source="sSqFom3tWy9NeXFKlYA6-17" edge="1">
          <mxGeometry relative="1" as="geometry">
            <mxPoint x="425" y="550" as="targetPoint" />
          </mxGeometry>
        </mxCell>
        <mxCell id="sSqFom3tWy9NeXFKlYA6-17" value="&lt;div&gt;Router&lt;/div&gt;" style="image;html=1;image=img/lib/clip_art/networking/Wireless_Router_128x128.png;sketch=1;curveFitting=1;jiggle=2;shadow=1;" parent="1" vertex="1">
          <mxGeometry x="385" y="437.5" width="80" height="80" as="geometry" />
        </mxCell>
        <mxCell id="sSqFom3tWy9NeXFKlYA6-35" style="rounded=0;orthogonalLoop=1;jettySize=auto;html=1;shape=link;fillColor=#008a00;strokeColor=#005700;" parent="1" source="sSqFom3tWy9NeXFKlYA6-22" target="sSqFom3tWy9NeXFKlYA6-2" edge="1">
          <mxGeometry relative="1" as="geometry">
            <Array as="points">
              <mxPoint x="500" y="440" />
            </Array>
          </mxGeometry>
        </mxCell>
        <mxCell id="sSqFom3tWy9NeXFKlYA6-36" value="8. Send Response Action" style="edgeLabel;html=1;align=center;verticalAlign=middle;resizable=0;points=[];" parent="sSqFom3tWy9NeXFKlYA6-35" vertex="1" connectable="0">
          <mxGeometry x="-0.024" y="-3" relative="1" as="geometry">
            <mxPoint x="-12" y="-20" as="offset" />
          </mxGeometry>
        </mxCell>
        <mxCell id="sSqFom3tWy9NeXFKlYA6-22" value="SOC Analyst&lt;div&gt;&lt;br&gt;&lt;/div&gt;" style="sketch=1;aspect=fixed;pointerEvents=1;shadow=1;dashed=0;html=1;strokeColor=#006EAF;labelPosition=center;verticalLabelPosition=bottom;verticalAlign=top;align=center;fillColor=#1ba1e2;shape=mxgraph.azure.computer;fontColor=#33001A;curveFitting=1;jiggle=2;gradientColor=default;" parent="1" vertex="1">
          <mxGeometry x="780" y="437.5" width="50" height="45" as="geometry" />
        </mxCell>
        <mxCell id="sSqFom3tWy9NeXFKlYA6-41" style="rounded=0;orthogonalLoop=1;jettySize=auto;html=1;entryX=0;entryY=0.5;entryDx=0;entryDy=0;entryPerimeter=0;shape=link;fillColor=#008a00;strokeColor=#005700;" parent="1" source="sSqFom3tWy9NeXFKlYA6-4" target="sSqFom3tWy9NeXFKlYA6-1" edge="1">
          <mxGeometry relative="1" as="geometry" />
        </mxCell>
        <mxCell id="sSqFom3tWy9NeXFKlYA6-42" value="10. Perform Responsive Action" style="edgeLabel;html=1;align=center;verticalAlign=middle;resizable=0;points=[];" parent="sSqFom3tWy9NeXFKlYA6-41" vertex="1" connectable="0">
          <mxGeometry x="-0.1033" y="-2" relative="1" as="geometry">
            <mxPoint as="offset" />
          </mxGeometry>
        </mxCell>
        <mxCell id="sSqFom3tWy9NeXFKlYA6-47" style="edgeStyle=orthogonalEdgeStyle;rounded=0;orthogonalLoop=1;jettySize=auto;html=1;" parent="1" source="sSqFom3tWy9NeXFKlYA6-46" edge="1">
          <mxGeometry relative="1" as="geometry">
            <mxPoint x="160" y="853" as="targetPoint" />
          </mxGeometry>
        </mxCell>
        <mxCell id="sSqFom3tWy9NeXFKlYA6-46" value="Window 10 Client&lt;div&gt;Wazuh Agent&lt;/div&gt;" style="text;html=1;align=center;verticalAlign=middle;resizable=0;points=[];autosize=1;strokeColor=none;fillColor=none;" parent="1" vertex="1">
          <mxGeometry x="-40" y="833" width="120" height="40" as="geometry" />
        </mxCell>
        <mxCell id="sSqFom3tWy9NeXFKlYA6-53" value="" style="edgeStyle=orthogonalEdgeStyle;rounded=0;orthogonalLoop=1;jettySize=auto;html=1;" parent="1" source="sSqFom3tWy9NeXFKlYA6-49" target="sSqFom3tWy9NeXFKlYA6-52" edge="1">
          <mxGeometry relative="1" as="geometry" />
        </mxCell>
        <mxCell id="sSqFom3tWy9NeXFKlYA6-49" value="Wazuh Manager&lt;div&gt;Trigger alert and perform response action&lt;/div&gt;" style="text;html=1;align=center;verticalAlign=middle;resizable=0;points=[];autosize=1;strokeColor=none;fillColor=none;" parent="1" vertex="1">
          <mxGeometry x="160" y="833" width="240" height="40" as="geometry" />
        </mxCell>
        <mxCell id="sSqFom3tWy9NeXFKlYA6-55" value="" style="edgeStyle=orthogonalEdgeStyle;rounded=0;orthogonalLoop=1;jettySize=auto;html=1;" parent="1" source="sSqFom3tWy9NeXFKlYA6-52" target="sSqFom3tWy9NeXFKlYA6-54" edge="1">
          <mxGeometry relative="1" as="geometry" />
        </mxCell>
        <mxCell id="sSqFom3tWy9NeXFKlYA6-57" value="" style="edgeStyle=orthogonalEdgeStyle;rounded=0;orthogonalLoop=1;jettySize=auto;html=1;" parent="1" source="sSqFom3tWy9NeXFKlYA6-52" target="sSqFom3tWy9NeXFKlYA6-56" edge="1">
          <mxGeometry relative="1" as="geometry" />
        </mxCell>
        <mxCell id="sSqFom3tWy9NeXFKlYA6-59" value="" style="edgeStyle=orthogonalEdgeStyle;rounded=0;orthogonalLoop=1;jettySize=auto;html=1;" parent="1" source="sSqFom3tWy9NeXFKlYA6-52" target="sSqFom3tWy9NeXFKlYA6-58" edge="1">
          <mxGeometry relative="1" as="geometry" />
        </mxCell>
        <mxCell id="sSqFom3tWy9NeXFKlYA6-52" value="Shuffle&amp;nbsp;&lt;div&gt;Receive alerts and perform response action&lt;/div&gt;" style="text;html=1;align=center;verticalAlign=middle;resizable=0;points=[];autosize=1;strokeColor=none;fillColor=none;" parent="1" vertex="1">
          <mxGeometry x="470" y="833" width="260" height="40" as="geometry" />
        </mxCell>
        <mxCell id="sSqFom3tWy9NeXFKlYA6-54" value="OSINT&lt;div&gt;Enrich IOCs&lt;/div&gt;" style="text;html=1;align=center;verticalAlign=middle;resizable=0;points=[];autosize=1;strokeColor=none;fillColor=none;" parent="1" vertex="1">
          <mxGeometry x="555" y="713" width="90" height="40" as="geometry" />
        </mxCell>
        <mxCell id="sSqFom3tWy9NeXFKlYA6-56" value="TheHive&amp;nbsp;&lt;div&gt;Create alerts in case management&lt;/div&gt;" style="text;html=1;align=center;verticalAlign=middle;resizable=0;points=[];autosize=1;strokeColor=none;fillColor=none;" parent="1" vertex="1">
          <mxGeometry x="495" y="953" width="210" height="40" as="geometry" />
        </mxCell>
        <mxCell id="sSqFom3tWy9NeXFKlYA6-58" value="Email&lt;div&gt;Send email &amp;amp; perform response actions&lt;/div&gt;" style="text;html=1;align=center;verticalAlign=middle;resizable=0;points=[];autosize=1;strokeColor=none;fillColor=none;" parent="1" vertex="1">
          <mxGeometry x="825" y="833" width="230" height="40" as="geometry" />
        </mxCell>
      </root>
    </mxGraphModel>
  </diagram>
</mxfile>
